<svg id="Capa_1" enable-background="new 0 0 510 510" height="512" viewBox="0 0 510 510" width="512" xmlns="http://www.w3.org/2000/svg" xmlns:xlink="http://www.w3.org/1999/xlink"><linearGradient id="lg1"><stop offset="0" stop-color="#ffd945"/><stop offset=".3043" stop-color="#ffcd3e"/><stop offset=".8558" stop-color="#ffad2b"/><stop offset="1" stop-color="#ffa325"/></linearGradient><linearGradient id="SVGID_1_" gradientTransform="matrix(.707 .707 -.707 .707 231.051 -115.544)" gradientUnits="userSpaceOnUse" x1="350.772" x2="358.573" xlink:href="#lg1" y1="34.932" y2="53.46"/><linearGradient id="SVGID_2_" gradientTransform="matrix(.707 .707 -.707 .707 231.051 -115.544)" gradientUnits="userSpaceOnUse" x1="202.094" x2="379.56" y1="259.677" y2="259.677"><stop offset="0" stop-color="#ff7044"/><stop offset="1" stop-color="#f82814"/></linearGradient><linearGradient id="lg2"><stop offset="0" stop-color="#f82814" stop-opacity="0"/><stop offset="1" stop-color="#c0272d"/></linearGradient><linearGradient id="SVGID_3_" gradientTransform="matrix(.707 .707 -.707 .707 231.051 -115.544)" gradientUnits="userSpaceOnUse" x1="273.71" x2="253.232" xlink:href="#lg2" y1="193.397" y2="-9.434"/><linearGradient id="SVGID_4_" gradientTransform="matrix(.707 .707 -.707 .707 231.051 -115.544)" gradientUnits="userSpaceOnUse" x1="426.762" x2="134.659" xlink:href="#lg2" y1="411.265" y2="119.162"/><linearGradient id="SVGID_5_" gradientTransform="matrix(.707 .707 -.707 .707 231.051 -115.544)" gradientUnits="userSpaceOnUse" x1="202.094" x2="379.56" y1="259.677" y2="259.677"><stop offset="0" stop-color="#f8f6fb"/><stop offset="1" stop-color="#efdcfb"/></linearGradient><linearGradient id="lg3"><stop offset="0" stop-color="#efdcfb" stop-opacity="0"/><stop offset=".4856" stop-color="#baaad6" stop-opacity=".486"/><stop offset="1" stop-color="#8679b2"/></linearGradient><linearGradient id="SVGID_6_" gradientTransform="matrix(.707 .707 -.707 .707 231.051 -115.544)" gradientUnits="userSpaceOnUse" x1="339.477" x2="201.006" xlink:href="#lg3" y1="298.245" y2="-87.913"/><linearGradient id="SVGID_7_" gradientTransform="matrix(.707 .707 -.707 .707 231.051 -115.544)" gradientUnits="userSpaceOnUse" x1="264.352" x2="264.352" xlink:href="#lg1" y1="59.991" y2="116.101"/><linearGradient id="SVGID_8_" gradientTransform="matrix(.707 .707 -.707 .707 231.051 -115.544)" gradientUnits="userSpaceOnUse" x1="264.352" x2="264.352" xlink:href="#lg1" y1="402.233" y2="456.472"/><linearGradient id="SVGID_9_" gradientTransform="matrix(.707 .707 -.707 .707 231.051 -115.544)" gradientUnits="userSpaceOnUse" x1="323.232" x2="180.861" xlink:href="#lg3" y1="339.749" y2="92.712"/><linearGradient id="SVGID_10_" gradientTransform="matrix(.707 -.707 .707 .707 31.023 -507.282)" gradientUnits="userSpaceOnUse" x1="-416.478" x2="-388.941" xlink:href="#lg1" y1="719.369" y2="806.799"/><linearGradient id="lg4"><stop offset="0" stop-color="#f35227" stop-opacity="0"/><stop offset="1" stop-color="#f35227"/></linearGradient><linearGradient id="SVGID_11_" gradientTransform="matrix(.707 .707 -.707 .707 231.051 -115.544)" gradientUnits="userSpaceOnUse" x1="316.354" x2="456.347" xlink:href="#lg4" y1="250.367" y2="278.676"/><linearGradient id="SVGID_12_" gradientTransform="matrix(.707 .707 -.707 .707 231.051 -115.544)" gradientUnits="userSpaceOnUse" x1="335.9" x2="395.361" xlink:href="#lg4" y1="288.513" y2="245.08"/><linearGradient id="SVGID_13_" gradientTransform="matrix(.563 .827 -.827 .563 213.44 -54.111)" gradientUnits="userSpaceOnUse" x1="219.349" x2="231.758" xlink:href="#lg1" y1="101.054" y2="131.69"/><linearGradient id="SVGID_14_" gradientTransform="matrix(.707 .707 -.707 .707 231.051 -115.544)" gradientUnits="userSpaceOnUse" x1="216.369" x2="189.223" xlink:href="#lg4" y1="217.236" y2="217.236"/><linearGradient id="SVGID_15_" gradientTransform="matrix(.707 .707 -.707 .707 231.051 -115.544)" gradientUnits="userSpaceOnUse" x1="233.07" x2="201.659" xlink:href="#lg4" y1="217.232" y2="218.008"/><linearGradient id="SVGID_16_" gradientTransform="matrix(.707 .707 -.707 .707 231.051 -115.544)" gradientUnits="userSpaceOnUse" x1="249.59" x2="199.953" xlink:href="#lg4" y1="217.353" y2="214.25"/><linearGradient id="SVGID_17_" gradientTransform="matrix(.707 .707 -.707 .707 231.051 -115.544)" gradientUnits="userSpaceOnUse" x1="260.63" x2="212.544" xlink:href="#lg4" y1="215.776" y2="214.225"/><linearGradient id="SVGID_18_" gradientTransform="matrix(.707 .707 -.707 .707 231.051 -115.544)" gradientUnits="userSpaceOnUse" x1="269.003" x2="223.631" xlink:href="#lg4" y1="211.346" y2="215.03"/><linearGradient id="SVGID_19_" gradientTransform="matrix(.827 .563 .563 -.827 13.884 145.445)" gradientUnits="userSpaceOnUse" x1="185.383" x2="193.908" xlink:href="#lg1" y1="-21.196" y2="-.151"/><linearGradient id="SVGID_20_" gradientTransform="matrix(.707 .707 .707 -.707 -47.549 163.056)" gradientUnits="userSpaceOnUse" x1="209.318" x2="190.671" xlink:href="#lg4" y1="84.168" y2="84.168"/><linearGradient id="SVGID_21_" gradientTransform="matrix(.707 .707 .707 -.707 -47.549 163.056)" gradientUnits="userSpaceOnUse" x1="220.79" x2="199.213" xlink:href="#lg4" y1="84.166" y2="84.698"/><linearGradient id="SVGID_22_" gradientTransform="matrix(.707 .707 .707 -.707 -47.549 163.056)" gradientUnits="userSpaceOnUse" x1="232.139" x2="198.041" xlink:href="#lg4" y1="84.248" y2="82.117"/><linearGradient id="SVGID_23_" gradientTransform="matrix(.707 .707 .707 -.707 -47.549 163.056)" gradientUnits="userSpaceOnUse" x1="239.722" x2="206.69" xlink:href="#lg4" y1="83.165" y2="82.1"/><linearGradient id="SVGID_24_" gradientTransform="matrix(.707 .707 .707 -.707 -47.549 163.056)" gradientUnits="userSpaceOnUse" x1="245.474" x2="214.307" xlink:href="#lg4" y1="80.122" y2="82.653"/><linearGradient id="SVGID_25_" gradientTransform="matrix(.707 .707 -.707 .707 231.051 -115.544)" gradientUnits="userSpaceOnUse" x1="212.962" x2="245.338" xlink:href="#lg1" y1="202.986" y2="305.781"/><linearGradient id="SVGID_26_" gradientTransform="matrix(.707 .707 -.707 .707 231.051 -115.544)" gradientUnits="userSpaceOnUse" x1="180.389" x2="253.295" xlink:href="#lg4" y1="258.835" y2="318.555"/><linearGradient id="SVGID_27_" gradientTransform="matrix(.707 .707 -.707 .707 231.051 -115.544)" gradientUnits="userSpaceOnUse" x1="218.069" x2="252.916" xlink:href="#lg4" y1="231.965" y2="247.805"/><linearGradient id="SVGID_28_" gradientTransform="matrix(.707 .707 -.707 .707 231.051 -115.544)" gradientUnits="userSpaceOnUse" x1="218.069" x2="252.916" xlink:href="#lg4" y1="251.192" y2="267.031"/><linearGradient id="SVGID_29_" gradientTransform="matrix(.707 .707 -.707 .707 231.051 -115.544)" gradientUnits="userSpaceOnUse" x1="218.069" x2="252.916" xlink:href="#lg4" y1="270.418" y2="286.258"/><linearGradient id="SVGID_30_" gradientTransform="matrix(.707 .707 -.707 .707 231.051 -115.544)" gradientUnits="userSpaceOnUse" x1="218.069" x2="252.916" xlink:href="#lg4" y1="289.645" y2="305.484"/><linearGradient id="SVGID_31_" gradientTransform="matrix(.707 .707 -.707 .707 231.051 -115.544)" gradientUnits="userSpaceOnUse" x1="227.844" x2="262.691" xlink:href="#lg4" y1="241.53" y2="257.37"/><linearGradient id="SVGID_32_" gradientTransform="matrix(.707 .707 -.707 .707 231.051 -115.544)" gradientUnits="userSpaceOnUse" x1="227.844" x2="262.691" xlink:href="#lg4" y1="260.757" y2="276.596"/><linearGradient id="SVGID_33_" gradientTransform="matrix(.707 .707 -.707 .707 231.051 -115.544)" gradientUnits="userSpaceOnUse" x1="227.844" x2="262.691" xlink:href="#lg4" y1="279.983" y2="295.823"/><linearGradient id="SVGID_34_" gradientTransform="matrix(.707 .707 -.707 .707 231.051 -115.544)" gradientUnits="userSpaceOnUse" x1="237.52" x2="272.367" xlink:href="#lg4" y1="231.965" y2="247.805"/><linearGradient id="SVGID_35_" gradientTransform="matrix(.707 .707 -.707 .707 231.051 -115.544)" gradientUnits="userSpaceOnUse" x1="237.52" x2="272.367" xlink:href="#lg4" y1="251.192" y2="267.031"/><linearGradient id="SVGID_36_" gradientTransform="matrix(.707 .707 -.707 .707 231.051 -115.544)" gradientUnits="userSpaceOnUse" x1="237.52" x2="272.367" xlink:href="#lg4" y1="270.418" y2="286.258"/><linearGradient id="SVGID_37_" gradientTransform="matrix(.707 .707 -.707 .707 231.051 -115.544)" gradientUnits="userSpaceOnUse" x1="237.52" x2="272.367" xlink:href="#lg4" y1="289.645" y2="305.484"/><linearGradient id="SVGID_38_" gradientTransform="matrix(.707 .707 -.707 .707 231.051 -115.544)" gradientUnits="userSpaceOnUse" x1="247.294" x2="282.141" xlink:href="#lg4" y1="241.53" y2="257.37"/><linearGradient id="SVGID_39_" gradientTransform="matrix(.707 .707 -.707 .707 231.051 -115.544)" gradientUnits="userSpaceOnUse" x1="247.294" x2="282.141" xlink:href="#lg4" y1="260.757" y2="276.596"/><linearGradient id="SVGID_40_" gradientTransform="matrix(.707 .707 -.707 .707 231.051 -115.544)" gradientUnits="userSpaceOnUse" x1="247.294" x2="282.141" xlink:href="#lg4" y1="279.983" y2="295.823"/><linearGradient id="SVGID_41_" gradientTransform="matrix(.707 .707 -.707 .707 231.051 -115.544)" gradientUnits="userSpaceOnUse" x1="256.97" x2="291.817" xlink:href="#lg4" y1="231.965" y2="247.805"/><linearGradient id="SVGID_42_" gradientTransform="matrix(.707 .707 -.707 .707 231.051 -115.544)" gradientUnits="userSpaceOnUse" x1="256.97" x2="291.817" xlink:href="#lg4" y1="251.192" y2="267.031"/><linearGradient id="SVGID_43_" gradientTransform="matrix(.707 .707 -.707 .707 231.051 -115.544)" gradientUnits="userSpaceOnUse" x1="256.97" x2="291.817" xlink:href="#lg4" y1="270.418" y2="286.258"/><linearGradient id="SVGID_44_" gradientTransform="matrix(.707 .707 -.707 .707 231.051 -115.544)" gradientUnits="userSpaceOnUse" x1="256.97" x2="291.817" xlink:href="#lg4" y1="289.645" y2="305.484"/><linearGradient id="SVGID_45_" gradientTransform="matrix(.707 .707 -.707 .707 231.051 -115.544)" gradientUnits="userSpaceOnUse" x1="266.745" x2="301.592" xlink:href="#lg4" y1="241.53" y2="257.37"/><linearGradient id="SVGID_46_" gradientTransform="matrix(.707 .707 -.707 .707 231.051 -115.544)" gradientUnits="userSpaceOnUse" x1="266.745" x2="301.592" xlink:href="#lg4" y1="260.757" y2="276.596"/><linearGradient id="SVGID_47_" gradientTransform="matrix(.707 .707 -.707 .707 231.051 -115.544)" gradientUnits="userSpaceOnUse" x1="266.745" x2="301.592" xlink:href="#lg4" y1="279.983" y2="295.823"/><linearGradient id="SVGID_48_" gradientTransform="matrix(.707 .707 -.707 .707 231.051 -115.544)" gradientUnits="userSpaceOnUse" x1="276.421" x2="311.268" xlink:href="#lg4" y1="251.192" y2="267.031"/><linearGradient id="SVGID_49_" gradientTransform="matrix(.707 .707 -.707 .707 231.051 -115.544)" gradientUnits="userSpaceOnUse" x1="276.421" x2="311.268" xlink:href="#lg4" y1="270.418" y2="286.258"/><linearGradient id="SVGID_50_" gradientTransform="matrix(.707 .707 -.707 .707 231.051 -115.544)" gradientUnits="userSpaceOnUse" x1="286.196" x2="321.043" xlink:href="#lg4" y1="260.757" y2="276.596"/><linearGradient id="SVGID_51_" gradientTransform="matrix(.707 .707 -.707 .707 231.051 -115.544)" gradientUnits="userSpaceOnUse" x1="170.477" x2="182.196" y1="252.644" y2="264.363"><stop offset="0" stop-color="#8a7889"/><stop offset="1" stop-color="#6e566e"/></linearGradient><linearGradient id="SVGID_52_" gradientTransform="matrix(.707 .707 -.707 .707 231.051 -115.544)" gradientUnits="userSpaceOnUse" x1="174.177" x2="186.615" y1="259.497" y2="236.365"><stop offset="0" stop-color="#6e566e" stop-opacity="0"/><stop offset=".0471" stop-color="#6e566e" stop-opacity=".047"/><stop offset="1" stop-color="#6e566e"/></linearGradient><linearGradient id="SVGID_53_" gradientTransform="matrix(.707 .707 -.707 .707 231.051 -115.544)" gradientUnits="userSpaceOnUse" x1="363.452" x2="290.641" xlink:href="#lg4" y1="465.279" y2="214.991"/><linearGradient id="lg5"><stop offset="0" stop-color="#fcb37e"/><stop offset="1" stop-color="#8c6239"/></linearGradient><linearGradient id="SVGID_54_" gradientTransform="matrix(1 0 0 .707 -1159.531 1106.002)" gradientUnits="userSpaceOnUse" x1="1628.246" x2="1653.746" xlink:href="#lg5" y1="-1289.683" y2="-1289.683"/><linearGradient id="lg6"><stop offset="0" stop-color="#8c6239" stop-opacity="0"/><stop offset="1" stop-color="#8c6239"/></linearGradient><linearGradient id="SVGID_55_" gradientUnits="userSpaceOnUse" x1="475.01" x2="520.486" xlink:href="#lg6" y1="191.474" y2="209.269"/><linearGradient id="SVGID_56_" gradientTransform="matrix(1 0 0 .707 -1159.531 1106.002)" gradientUnits="userSpaceOnUse" x1="1636.884" x2="1662.384" xlink:href="#lg5" y1="-1233.593" y2="-1233.593"/><linearGradient id="SVGID_57_" gradientUnits="userSpaceOnUse" x1="483.649" x2="529.125" xlink:href="#lg6" y1="231.139" y2="248.933"/><linearGradient id="SVGID_58_" gradientTransform="matrix(1 0 0 .707 -1159.531 1106.002)" gradientUnits="userSpaceOnUse" x1="1600.976" x2="1626.476" xlink:href="#lg5" y1="-1177.025" y2="-1177.025"/><linearGradient id="SVGID_59_" gradientUnits="userSpaceOnUse" x1="447.741" x2="493.216" xlink:href="#lg6" y1="271.14" y2="288.935"/><linearGradient id="SVGID_60_" gradientTransform="matrix(1 0 0 .707 -1159.531 1106.002)" gradientUnits="userSpaceOnUse" x1="1636.884" x2="1662.384" xlink:href="#lg5" y1="-1148.015" y2="-1148.015"/><linearGradient id="SVGID_61_" gradientUnits="userSpaceOnUse" x1="483.649" x2="529.125" xlink:href="#lg6" y1="291.655" y2="309.45"/><linearGradient id="SVGID_62_" gradientTransform="matrix(1 0 0 .707 -1159.531 1106.002)" gradientUnits="userSpaceOnUse" x1="1605.351" x2="1630.851" xlink:href="#lg5" y1="-1098.486" y2="-1098.486"/><linearGradient id="SVGID_63_" gradientUnits="userSpaceOnUse" x1="452.116" x2="497.591" xlink:href="#lg6" y1="326.68" y2="344.475"/><g><g><path d="m498.523 169.842h-88.657c-6.338 0-11.477-5.138-11.477-11.477v-1.425c0-6.338 5.138-11.477 11.477-11.477h88.657c6.338 0 11.477 5.138 11.477 11.477v1.425c0 6.338-5.138 11.477-11.477 11.477z" fill="url(#SVGID_1_)"/><g><path d="m214.011 470.352-195.006-195.006 46.167-46.167 94.838-52.957 48.256-90.137 46.437-46.437 195.007 195.006-46.237 46.237-70.657 52.656-72.55 90.551z" fill="url(#SVGID_2_)"/><path d="m243.82 50.531v390.013l205.89-205.89-195.007-195.006z" fill="url(#SVGID_3_)"/><path d="m343.456 306.396c.941-1.975.892-4.377-.36-6.363-7.59-12.042-19.707-21.242-34.645-24.811-9.102-2.174-18.207-1.991-26.698.129l-.57-58.862c.863-1.805.91-3.979-.083-5.889-6.565-12.63-17.877-22.804-32.468-27.599-9.98-3.28-20.211-3.603-29.774-1.486-7.341-5.469-15.092-10.091-23.116-13.849-27.635-12.945-57.911 11.959-55.717 39.583v189.117l73.986 73.986 129.445-129.445z" fill="url(#SVGID_4_)"/><path d="m260.149 424.215-195.006-195.007 143.423-143.423 195.006 195.007z" fill="url(#SVGID_5_)"/><path d="m243.82 407.885 16.329 16.33 143.423-143.423-159.752-159.752z" fill="url(#SVGID_6_)"/><g><path d="m441.233 247.945-199.82-199.821c-4.77-4.77-2.833-13.818 3.992-18.64 16.572-11.708 36.682-11.797 48.266-.213l166.417 166.417c11.584 11.584 11.495 31.694-.213 48.266-4.823 6.823-13.871 8.761-18.642 3.991z" fill="url(#SVGID_7_)"/><path d="m27.481 262.055 199.821 199.821c4.77 4.77 2.833 13.818-3.992 18.64-16.572 11.708-36.682 11.797-48.266.213l-166.416-166.416c-11.584-11.584-11.495-31.694.213-48.266 4.822-6.824 13.87-8.762 18.64-3.992z" fill="url(#SVGID_8_)"/></g><path d="m343.096 300.033c-7.59-12.042-19.707-21.242-34.645-24.811-9.102-2.174-18.207-1.991-26.698.129l-.57-58.862c.863-1.805.91-3.979-.083-5.889-6.565-12.63-17.877-22.804-32.468-27.599-9.98-3.28-20.211-3.603-29.774-1.486-7.341-5.469-15.092-10.091-23.116-13.849-27.635-12.945-57.911 11.959-55.717 39.583v96.841l120.124 120.124 83.307-83.307v-34.511c.941-1.974.892-4.377-.36-6.363z" fill="url(#SVGID_9_)"/><g><g><g><path d="m308.451 275.223c-17.174-4.102-34.387.122-47.408 10.06-9.938 13.022-14.162 30.234-10.06 47.408 3.568 14.938 12.769 27.055 24.811 34.645 3.122 1.968 7.278.975 9.174-2.192 7.311-12.213 10.043-27.18 6.475-42.118-.958-4.011-2.327-7.816-4.043-11.387 3.571 1.716 7.376 3.085 11.387 4.043 14.938 3.568 29.905.837 42.118-6.475 3.167-1.896 4.16-6.052 2.192-9.174-7.591-12.041-19.708-21.242-34.646-24.81z" fill="url(#SVGID_10_)"/><path d="m263.807 337.627c4.925 10.447 11.663 20.394 19.537 29.336.632-.488 1.189-1.093 1.623-1.818 7.311-12.213 10.043-27.18 6.475-42.118-.958-4.011-2.327-7.816-4.043-11.387 3.571 1.716 7.376 3.085 11.387 4.043 14.938 3.568 29.905.837 42.118-6.475.725-.434 1.33-.991 1.818-1.623-8.941-7.875-18.889-14.612-29.336-19.537-21.336-10.059-40.165-10.393-52.344-2.765-7.628 12.179-7.293 31.008 2.765 52.344z" fill="url(#SVGID_11_)"/><path d="m250.982 332.691c3.568 14.938 12.769 27.055 24.811 34.645 3.122 1.968 7.278.975 9.174-2.192 7.311-12.213 10.043-27.18 6.475-42.118-4.102-17.174-15.65-30.619-30.4-37.743-9.937 13.021-14.162 30.234-10.06 47.408z" fill="url(#SVGID_12_)"/></g><g><path d="m235.644 222.52c14.591 4.795 29.733 3.314 42.51-2.959 3.313-1.627 4.647-5.686 2.945-8.961-6.565-12.63-17.877-22.804-32.467-27.599-16.775-5.513-34.278-2.73-48.079 6.093 5.876 15.29 18.316 27.913 35.091 33.426z" fill="url(#SVGID_13_)"/><path d="m278.156 219.561c-8.753 4.3-18.619 6.346-28.65 5.66-4.618-.307-9.263-1.19-13.859-2.704-.669-.219-1.333-.455-1.985-.702-4.267-1.568-8.232-3.614-11.857-6.043-3.504-2.342-6.696-5.062-9.532-8.062-2.874-3.038-5.391-6.378-7.508-9.954 6.719-6.153 14.308-11.175 22.558-14.787 4.393-1.924 9.257-2.488 13.979-1.65 2.587.459 5.371 1.04 7.327 1.684 2.583.85 5.073 1.87 7.442 3.044 4.563 2.249 8.72 5.067 12.4 8.341 3.011 2.671 5.704 5.638 8.056 8.846 1.711 2.336 3.236 4.804 4.568 7.365.318.603.526 1.239.642 1.87.505 2.82-.877 5.771-3.581 7.092z" fill="url(#SVGID_14_)"/><path d="m278.156 219.561c-8.753 4.3-18.619 6.346-28.65 5.66-4.618-.307-9.263-1.19-13.859-2.704-.669-.219-1.333-.455-1.985-.702-4.267-1.568-8.232-3.614-11.857-6.043-3.504-2.342-6.696-5.062-9.532-8.062 9.752-9.291 21.43-16.149 34.366-19.701 6.384-1.753 13.214-.371 18.488 3.631 1.154.875 2.269 1.793 3.343 2.748 3.011 2.671 5.704 5.638 8.056 8.846 1.711 2.336 3.236 4.804 4.568 7.365.318.603.526 1.239.642 1.87.506 2.82-.876 5.771-3.58 7.092z" fill="url(#SVGID_15_)"/><path d="m278.156 219.561c-8.753 4.3-18.619 6.346-28.65 5.66-4.618-.307-9.263-1.19-13.859-2.704-.669-.219-1.333-.455-1.985-.702-4.267-1.568-8.232-3.614-11.857-6.043 11.183-10.399 24.811-17.635 39.927-20.44 4.405-.817 8.887.816 11.83 4.194 1.041 1.196 2.03 2.433 2.966 3.708 1.711 2.336 3.236 4.804 4.568 7.365.318.603.526 1.239.642 1.87.504 2.82-.878 5.771-3.582 7.092z" fill="url(#SVGID_16_)"/><path d="m278.156 219.561c-8.753 4.3-18.619 6.346-28.65 5.66-4.618-.307-9.263-1.19-13.859-2.704-.669-.219-1.333-.455-1.985-.702 10.605-8.969 23.186-15.203 37.002-17.738 3.666-.673 7.362 1.089 9.223 4.317.419.726.822 1.461 1.208 2.204.318.603.526 1.239.642 1.87.505 2.821-.877 5.772-3.581 7.093z" fill="url(#SVGID_17_)"/><path d="m278.156 219.561c-8.753 4.3-18.619 6.346-28.65 5.66 9.608-6.526 20.5-10.969 32.231-12.751.505 2.819-.877 5.77-3.581 7.091z" fill="url(#SVGID_18_)"/></g><g><path d="m181.587 255.126c3.294 10.023 2.277 20.425-2.033 29.202-1.117 2.276-3.906 3.192-6.156 2.023-8.676-4.51-15.665-12.28-18.959-22.303-3.787-11.523-1.876-23.547 4.186-33.027 10.504 4.036 19.175 12.582 22.962 24.105z" fill="url(#SVGID_19_)"/><path d="m179.555 284.329c2.954-6.013 4.359-12.79 3.888-19.681-.211-3.172-.817-6.363-1.857-9.52-.151-.46-.313-.915-.482-1.364-1.077-2.931-2.483-5.655-4.151-8.145-1.609-2.407-3.477-4.6-5.538-6.548-2.087-1.974-4.381-3.703-6.838-5.157-4.227 4.615-7.676 9.828-10.158 15.496-1.321 3.018-1.709 6.359-1.134 9.602.315 1.777.714 3.689 1.157 5.033.584 1.774 1.285 3.485 2.091 5.112 1.545 3.134 3.481 5.99 5.73 8.518 1.835 2.068 3.873 3.918 6.077 5.534 1.605 1.175 3.3 2.223 5.059 3.138.414.219.851.362 1.285.441 1.936.348 3.963-.602 4.871-2.459z" fill="url(#SVGID_20_)"/><path d="m179.555 284.329c2.954-6.013 4.359-12.79 3.888-19.681-.211-3.172-.817-6.363-1.857-9.52-.151-.46-.313-.915-.482-1.364-1.077-2.931-2.483-5.655-4.151-8.145-1.609-2.407-3.477-4.6-5.538-6.548-6.382 6.699-11.093 14.721-13.533 23.607-1.205 4.386-.255 9.077 2.494 12.7.601.793 1.231 1.559 1.888 2.297 1.835 2.068 3.873 3.918 6.077 5.534 1.605 1.175 3.3 2.223 5.059 3.138.414.219.851.362 1.285.441 1.935.348 3.962-.602 4.87-2.459z" fill="url(#SVGID_21_)"/><path d="m179.555 284.329c2.954-6.013 4.359-12.79 3.888-19.681-.211-3.172-.817-6.363-1.857-9.52-.151-.46-.313-.915-.482-1.364-1.077-2.931-2.483-5.655-4.151-8.145-7.143 7.682-12.114 17.044-14.041 27.427-.561 3.026.56 6.105 2.881 8.126.821.715 1.671 1.395 2.547 2.037 1.605 1.175 3.3 2.223 5.059 3.138.414.219.851.362 1.285.441 1.936.348 3.963-.602 4.871-2.459z" fill="url(#SVGID_22_)"/><path d="m179.555 284.329c2.954-6.013 4.359-12.79 3.888-19.681-.211-3.172-.817-6.363-1.857-9.52-.151-.46-.313-.915-.482-1.364-6.161 7.285-10.443 15.927-12.185 25.418-.462 2.518.748 5.057 2.966 6.336.499.288 1.004.564 1.514.83.414.219.851.362 1.285.441 1.936.347 3.963-.603 4.871-2.46z" fill="url(#SVGID_23_)"/><path d="m179.555 284.329c2.954-6.013 4.359-12.79 3.888-19.681-4.483 6.6-7.535 14.082-8.759 22.141 1.936.347 3.963-.603 4.871-2.46z" fill="url(#SVGID_24_)"/></g><path d="m233.863 194.486c-11.439-11.439-24.385-20.385-38.121-26.819-31.86-14.924-67.24 20.457-52.317 52.317 6.434 13.736 15.38 26.682 26.819 38.121 23.732 23.732 53.949 36.733 84.252 38.837 10.106.702 18.906-8.097 18.204-18.204-2.104-30.304-15.105-60.52-38.837-84.252z" fill="url(#SVGID_25_)"/><path d="m143.426 219.983c2.487 5.308 5.353 10.497 8.588 15.528 14.904-.173 29.756-5.933 41.128-17.305 11.715-11.715 17.476-27.122 17.306-42.476-4.774-3.021-9.686-5.712-14.706-8.063-31.859-14.924-67.24 20.456-52.316 52.316z" fill="url(#SVGID_26_)"/><g opacity=".5"><g><g><path d="m231.03 214.485c-3.754 3.754-11.152 2.443-16.523-2.928s8.224-18.966 13.595-13.595 6.682 12.769 2.928 16.523z" fill="url(#SVGID_27_)"/><path d="m217.435 228.08c-3.754 3.754-11.152 2.443-16.523-2.928s8.224-18.966 13.595-13.595 6.682 12.769 2.928 16.523z" fill="url(#SVGID_28_)"/><path d="m203.839 241.675c-3.754 3.754-11.152 2.443-16.523-2.928s8.224-18.966 13.595-13.595 6.683 12.769 2.928 16.523z" fill="url(#SVGID_29_)"/><path d="m190.244 255.27c-3.754 3.754-11.152 2.443-16.523-2.928s8.224-18.966 13.595-13.595 6.683 12.769 2.928 16.523z" fill="url(#SVGID_30_)"/></g><g><path d="m231.178 228.16c-3.754 3.754-11.152 2.443-16.523-2.928s8.224-18.966 13.595-13.595 6.682 12.769 2.928 16.523z" fill="url(#SVGID_31_)"/><path d="m217.583 241.755c-3.754 3.754-11.152 2.443-16.523-2.928s8.224-18.966 13.595-13.595 6.682 12.769 2.928 16.523z" fill="url(#SVGID_32_)"/><path d="m203.988 255.35c-3.754 3.754-11.152 2.443-16.523-2.928s8.224-18.966 13.595-13.595 6.682 12.769 2.928 16.523z" fill="url(#SVGID_33_)"/></g></g><g><g><path d="m244.783 228.239c-3.754 3.754-11.152 2.443-16.523-2.928s8.224-18.966 13.595-13.595 6.683 12.768 2.928 16.523z" fill="url(#SVGID_34_)"/><path d="m231.188 241.834c-3.754 3.754-11.152 2.443-16.523-2.928s8.224-18.966 13.595-13.595c5.372 5.371 6.682 12.768 2.928 16.523z" fill="url(#SVGID_35_)"/><path d="m217.593 255.429c-3.754 3.754-11.152 2.443-16.523-2.928s8.224-18.966 13.595-13.595 6.682 12.769 2.928 16.523z" fill="url(#SVGID_36_)"/><path d="m203.998 269.024c-3.754 3.754-11.152 2.443-16.523-2.928s8.224-18.966 13.595-13.595 6.682 12.769 2.928 16.523z" fill="url(#SVGID_37_)"/></g><g><path d="m244.932 241.914c-3.754 3.754-11.152 2.443-16.523-2.928s8.224-18.966 13.595-13.595 6.682 12.768 2.928 16.523z" fill="url(#SVGID_38_)"/><path d="m231.337 255.509c-3.754 3.754-11.152 2.443-16.523-2.928s8.224-18.966 13.595-13.595 6.682 12.769 2.928 16.523z" fill="url(#SVGID_39_)"/><path d="m217.741 269.104c-3.754 3.754-11.152 2.443-16.523-2.928s8.224-18.966 13.595-13.595 6.683 12.769 2.928 16.523z" fill="url(#SVGID_40_)"/></g></g><g><g><path d="m258.537 241.992c-3.754 3.754-11.152 2.443-16.523-2.928s8.224-18.966 13.595-13.595 6.682 12.769 2.928 16.523z" fill="url(#SVGID_41_)"/><path d="m244.942 255.587c-3.754 3.754-11.152 2.443-16.523-2.928s8.224-18.966 13.595-13.595 6.682 12.769 2.928 16.523z" fill="url(#SVGID_42_)"/><path d="m231.347 269.182c-3.754 3.754-11.152 2.443-16.523-2.928s8.224-18.966 13.595-13.595c5.371 5.372 6.682 12.769 2.928 16.523z" fill="url(#SVGID_43_)"/><path d="m217.752 282.778c-3.754 3.754-11.152 2.443-16.523-2.928s8.224-18.966 13.595-13.595 6.682 12.768 2.928 16.523z" fill="url(#SVGID_44_)"/></g><g><path d="m258.685 255.667c-3.754 3.754-11.152 2.443-16.523-2.928s8.224-18.966 13.595-13.595 6.683 12.769 2.928 16.523z" fill="url(#SVGID_45_)"/><path d="m245.09 269.262c-3.754 3.754-11.152 2.443-16.523-2.928s8.224-18.966 13.595-13.595c5.372 5.372 6.682 12.769 2.928 16.523z" fill="url(#SVGID_46_)"/><path d="m231.495 282.858c-3.754 3.754-11.152 2.443-16.523-2.928s8.224-18.966 13.595-13.595 6.682 12.768 2.928 16.523z" fill="url(#SVGID_47_)"/></g></g><g><g><path d="m258.696 269.341c-3.754 3.754-11.152 2.443-16.523-2.928s8.224-18.966 13.595-13.595 6.682 12.769 2.928 16.523z" fill="url(#SVGID_48_)"/><path d="m245.1 282.936c-3.754 3.754-11.152 2.443-16.523-2.928s8.224-18.966 13.595-13.595 6.683 12.769 2.928 16.523z" fill="url(#SVGID_49_)"/></g><g><path d="m258.844 283.016c-3.754 3.754-11.152 2.443-16.523-2.928s8.224-18.966 13.595-13.595 6.682 12.769 2.928 16.523z" fill="url(#SVGID_50_)"/></g></g></g><g><path d="m179.349 194.833c-3.534 3.534-9.263 3.534-12.797 0s-3.534-9.263 0-12.796c3.534-3.534 9.263-3.534 12.797 0 3.533 3.533 3.533 9.262 0 12.796z" fill="url(#SVGID_51_)"/><path d="m181.536 185.574c-.43 1.293-1.158 2.508-2.187 3.537-3.534 3.534-9.263 3.534-12.797 0-1.029-1.029-1.758-2.244-2.187-3.537-1.046 3.147-.317 6.755 2.187 9.259 3.534 3.534 9.263 3.534 12.797 0 2.504-2.505 3.233-6.112 2.187-9.259z" fill="url(#SVGID_52_)"/></g></g></g><path d="m223.311 480.516c6.824-4.822 8.762-13.869 3.992-18.64l-87.277-87.277v71.11l35.02 35.02c11.583 11.584 31.693 11.495 48.265-.213z" fill="url(#SVGID_53_)"/></g></g><g><ellipse cx="481.465" cy="193.999" fill="url(#SVGID_54_)" rx="12.75" ry="11.956"/><path d="m484.756 182.447c1.633 2.01 2.605 4.518 2.605 7.24 0 6.603-5.708 11.956-12.75 11.956-1.138 0-2.241-.142-3.291-.404 2.329 2.866 6.006 4.716 10.145 4.716 7.042 0 12.75-5.353 12.75-11.956 0-5.535-4.013-10.191-9.459-11.552z" fill="url(#SVGID_55_)"/></g><g><ellipse cx="490.103" cy="233.664" fill="url(#SVGID_56_)" rx="12.75" ry="11.956"/><path d="m493.395 222.112c1.633 2.01 2.605 4.518 2.605 7.24 0 6.603-5.708 11.956-12.75 11.956-1.138 0-2.241-.142-3.292-.404 2.329 2.866 6.006 4.716 10.145 4.716 7.042 0 12.75-5.353 12.75-11.956 0-5.536-4.012-10.191-9.458-11.552z" fill="url(#SVGID_57_)"/></g><g><ellipse cx="454.195" cy="273.665" fill="url(#SVGID_58_)" rx="12.75" ry="11.956"/><path d="m457.486 262.114c1.633 2.01 2.605 4.518 2.605 7.24 0 6.603-5.708 11.956-12.75 11.956-1.138 0-2.241-.142-3.291-.404 2.329 2.866 6.006 4.716 10.145 4.716 7.042 0 12.75-5.353 12.75-11.956 0-5.536-4.013-10.191-9.459-11.552z" fill="url(#SVGID_59_)"/></g><g><ellipse cx="490.103" cy="294.18" fill="url(#SVGID_60_)" rx="12.75" ry="11.956"/><path d="m493.395 282.628c1.633 2.01 2.605 4.518 2.605 7.24 0 6.603-5.708 11.956-12.75 11.956-1.138 0-2.241-.142-3.292-.404 2.329 2.866 6.006 4.716 10.145 4.716 7.042 0 12.75-5.353 12.75-11.956 0-5.536-4.012-10.191-9.458-11.552z" fill="url(#SVGID_61_)"/></g><g><ellipse cx="458.57" cy="329.205" fill="url(#SVGID_62_)" rx="12.75" ry="11.956"/><path d="m461.861 317.653c1.633 2.01 2.605 4.518 2.605 7.24 0 6.603-5.708 11.956-12.75 11.956-1.138 0-2.241-.142-3.291-.404 2.329 2.866 6.006 4.716 10.145 4.716 7.042 0 12.75-5.353 12.75-11.956 0-5.536-4.013-10.191-9.459-11.552z" fill="url(#SVGID_63_)"/></g></g></svg>